<?xml version="1.0" standalone="no"?>
<!DOCTYPE svg PUBLIC "-//W3C//DTD SVG 20010904//EN"
 "http://www.w3.org/TR/2001/REC-SVG-20010904/DTD/svg10.dtd">
<svg version="1.0" xmlns="http://www.w3.org/2000/svg"
 width="280.000000pt" height="280.000000pt" viewBox="0 0 280.000000 280.000000"
 preserveAspectRatio="xMidYMid meet">
<metadata>
Created by potrace 1.15, written by Peter Selinger 2001-2017
</metadata>
<g transform="translate(0.000000,280.000000) scale(0.100000,-0.100000)"
fill="#000000" stroke="none">
<path d="M1255 2739 c-583 -71 -1050 -499 -1170 -1074 -9 -44 -19 -138 -22
-210 -20 -483 217 -930 633 -1197 131 -84 321 -155 493 -183 159 -27 388 -17
543 23 450 117 817 459 951 888 50 160 62 238 62 414 -1 289 -69 518 -221 747
-192 288 -511 503 -849 572 -120 24 -310 33 -420 20z m295 -89 c463 -57 854
-359 1026 -792 99 -250 110 -569 28 -828 -142 -450 -519 -783 -979 -865 -131
-24 -335 -22 -463 5 -736 150 -1175 886 -957 1605 112 370 414 683 785 812
179 63 376 85 560 63z"/>
<path d="M1283 2559 c-256 -24 -516 -150 -703 -338 -348 -351 -437 -870 -225
-1318 147 -312 425 -540 765 -630 127 -33 344 -42 475 -20 259 46 469 159 653
352 175 184 276 394 311 650 48 345 -78 713 -329 965 -195 194 -438 311 -710
340 -105 11 -119 11 -237 -1z m389 -122 c184 -48 335 -134 475 -270 215 -208
323 -466 323 -767 0 -245 -70 -454 -217 -647 -383 -504 -1121 -563 -1584 -126
-215 203 -330 474 -330 778 0 289 96 526 299 737 161 167 350 269 579 313 119
22 331 14 455 -18z"/>
<path d="M1230 2265 c-193 -39 -388 -157 -509 -309 -279 -350 -259 -841 48
-1160 140 -145 293 -227 489 -261 l83 -15 90 91 c73 75 213 261 214 287 1 4
11 27 24 51 42 81 88 239 107 366 8 54 7 259 -1 315 -31 214 -116 418 -249
598 l-38 52 -97 -1 c-53 0 -125 -7 -161 -14z"/>
</g>
</svg>
